<svg width="89" height="75" viewBox="0 0 89 75" fill="none" xmlns="http://www.w3.org/2000/svg">
<rect width="89" height="75" rx="20" fill="url(#paint0_linear_119_38)"/>
<path fill-rule="evenodd" clip-rule="evenodd" d="M29.2219 11.9524C22.4765 14.4491 20.9508 20.2191 25.8339 24.7612C27.3911 26.2085 30.0701 27.8842 31.7865 28.4849C32.8507 28.8567 32.8724 30.3538 31.8194 30.7563L29.5776 31.6131C26.0395 32.9647 23.3082 34.7299 21.455 36.8614C18.9741 39.7147 18.7071 40.4946 19.0645 43.8459C19.5495 48.41 21.9757 52.2276 26.1274 54.9615C28.7667 56.6995 30.3206 56.9999 36.6845 56.9999C43.2566 56.9999 44.7375 56.6934 49.0907 54.4293C52.0873 52.8705 56.2498 49.5113 59.6627 45.8965C62.758 42.6181 65.2911 40.4349 65.2911 41.0461C65.2911 41.6582 64.85 42.6251 64.3102 43.1969C63.7704 43.7686 63.5897 44.5133 63.9089 44.8514C64.2281 45.1895 64.8857 45.0464 65.3691 44.5344C65.923 43.9477 67.3392 43.8634 69.1966 44.3069C72.4511 45.085 75.1327 44.3254 76.8449 42.1404C78.6094 39.8886 77.218 39.482 74.7587 41.5309C71.0854 44.5915 66.1842 43.7633 69.68 40.6728C71.0647 39.4486 71.1974 39.0473 70.2248 39.0253C69.5175 39.0095 68.5042 39.4574 67.9719 40.0212C67.2339 40.8028 66.8774 40.6983 66.4736 39.5821C66.1817 38.7768 65.617 38.1181 65.219 38.1181C64.8202 38.1181 61.7821 40.9916 58.467 44.5028C51.909 51.4495 47.2035 54.3468 40.2773 55.7027C29.4068 57.8316 20.5271 52.2285 20.5188 43.2355C20.5164 40.8617 21.1358 39.3529 22.8646 37.5218C25.1108 35.1418 34.2575 31.0651 37.3064 31.0835C40.3254 31.102 38.5767 29.4404 33.9897 27.9316C29.3587 26.4088 23.8322 21.9272 23.8322 19.6956C23.8322 19.1274 24.8928 17.5387 26.1888 16.1661C31.0652 11.0012 41.8776 10.5498 46.3842 15.323C49.7681 18.907 49.2043 22.3303 44.8237 24.8016C39.4913 27.8095 29.9383 22.9196 35.1323 19.8405C35.8968 19.3874 36.1298 18.8095 35.6696 18.5074C35.2218 18.215 34.148 18.5329 33.2824 19.2153C29.4234 22.2557 37.2201 28.3979 43.3925 27.1798C46.133 26.6389 49.0293 23.861 49.8469 20.9901C50.579 18.4196 47.497 13.6359 44.1554 12.1579C40.8785 10.7079 32.8827 10.5973 29.2219 11.9524Z" fill="black"/>
<defs>
<linearGradient id="paint0_linear_119_38" x1="0" y1="37.5" x2="89" y2="37.5" gradientUnits="userSpaceOnUse">
<stop stop-color="#6366F1"/>
<stop offset="1" stop-color="#E7B2FA"/>
</linearGradient>
</defs>
</svg>
