<svg width="31" height="29" viewBox="0 0 31 29" fill="none" xmlns="http://www.w3.org/2000/svg">
<rect width="31" height="29" rx="14.5" fill="url(#paint0_linear_182_20)"/>
<path fill-rule="evenodd" clip-rule="evenodd" d="M10.1784 4.62159C7.82887 5.58701 7.29745 7.81805 8.99828 9.57435C9.54067 10.134 10.4738 10.7819 11.0717 11.0142V11.0142C11.468 11.1679 11.4767 11.7255 11.0854 11.8915L10.3023 12.2237C9.06991 12.7464 8.11855 13.4289 7.47305 14.2531C6.60892 15.3564 6.51592 15.6579 6.64039 16.9537C6.80935 18.7185 7.65442 20.1947 9.10052 21.2518C10.0198 21.9238 10.5611 22.04 12.7777 22.04C15.0669 22.04 15.5827 21.9214 17.099 21.046C18.1427 20.4433 19.5926 19.1444 20.7813 17.7467C21.8595 16.479 22.7418 15.6348 22.7418 15.8712C22.7418 16.1079 22.5882 16.4817 22.4002 16.7028C22.2121 16.9239 22.1492 17.2118 22.2604 17.3426C22.3716 17.4733 22.6006 17.4179 22.769 17.22C22.9619 16.9931 23.4552 16.9605 24.1021 17.132C25.2357 17.4329 26.1698 17.1392 26.7662 16.2943C27.3808 15.4236 26.8961 15.2664 26.0395 16.0586C24.7601 17.242 23.0529 16.9218 24.2705 15.7268C24.7528 15.2535 24.7991 15.0983 24.4603 15.0898C24.2139 15.0837 23.861 15.2569 23.6756 15.4749C23.4185 15.7771 23.2943 15.7367 23.1537 15.3051C23.052 14.9937 22.8553 14.739 22.7167 14.739C22.5778 14.739 21.5196 15.8501 20.3649 17.2077C18.0806 19.8938 16.4416 21.0141 14.0291 21.5384C10.2428 22.3615 7.14986 20.195 7.14698 16.7177C7.14611 15.7999 7.36185 15.2165 7.96403 14.5084C8.74643 13.5882 11.9323 12.0118 12.9943 12.019C14.0459 12.0261 13.4368 11.3836 11.8391 10.8002C10.226 10.2114 8.30108 8.47853 8.30108 7.61566C8.30108 7.39595 8.67048 6.78165 9.12189 6.25089C10.8204 4.25382 14.5866 4.07928 16.1563 5.92489C17.3349 7.31071 17.1385 8.63439 15.6127 9.58997C13.7553 10.753 10.4279 8.86225 12.237 7.67169C12.5033 7.49646 12.5845 7.27302 12.4242 7.15621C12.2682 7.04313 11.8942 7.16605 11.5927 7.42991C10.2486 8.60553 12.9643 10.9805 15.1142 10.5096C16.0688 10.3004 17.0776 9.22628 17.3624 8.1162C17.6174 7.12225 16.5439 5.27256 15.3799 4.70105C14.2385 4.1404 11.4535 4.09762 10.1784 4.62159Z" fill="black"/>
<defs>
<linearGradient id="paint0_linear_182_20" x1="0" y1="14.5" x2="31" y2="14.5" gradientUnits="userSpaceOnUse">
<stop stop-color="#6366F1"/>
<stop offset="0.504769" stop-color="#A68DF6"/>
<stop offset="1" stop-color="#E7B2FA"/>
</linearGradient>
</defs>
</svg>
