<svg width="66" height="59" viewBox="0 0 66 59" fill="none" xmlns="http://www.w3.org/2000/svg">
<rect x="0.433167" y="2.21729" width="64.4338" height="56.1109" rx="28.0555" transform="rotate(-1.17074 0.433167 2.21729)" fill="url(#paint0_linear_119_38)"/>
<path fill-rule="evenodd" clip-rule="evenodd" d="M21.7674 10.7253C16.9231 12.6927 15.907 17.0311 19.5109 20.3563C20.6601 21.4159 22.6249 22.6296 23.8765 23.0536C24.6692 23.3216 24.7082 24.4282 23.9364 24.7515L22.3254 25.4261C19.7851 26.4894 17.8351 27.8502 16.5263 29.4719C14.7742 31.6429 14.5928 32.2302 14.9027 34.7316C15.3236 38.1383 17.1381 40.958 20.185 42.9415C22.1219 44.2025 23.2512 44.4042 27.8576 44.31C32.6146 44.2128 33.6819 43.9616 36.7982 42.2038C38.9434 40.9934 41.905 38.4192 44.3201 35.6649C46.5104 33.1669 48.3106 31.4964 48.3199 31.9536C48.3293 32.4115 48.0248 33.1412 47.6428 33.5769C47.2608 34.0125 47.1414 34.5722 47.3776 34.8204C47.6138 35.0686 48.0876 34.9518 48.4297 34.5617C48.8216 34.1147 49.8454 34.0306 51.1966 34.3349C53.5642 34.8688 55.4936 34.2609 56.6996 32.6012C57.9423 30.8908 56.929 30.6072 55.1802 32.1762C52.5682 34.5198 49.0079 33.9728 51.491 31.6095C52.4746 30.6733 52.5645 30.3711 51.8601 30.3691C51.3479 30.3677 50.6214 30.7177 50.2447 31.1473C49.7224 31.7429 49.4628 31.67 49.1534 30.8411C48.9298 30.243 48.5111 29.7587 48.223 29.7646C47.9343 29.7705 45.7791 31.9648 43.4333 34.6401C38.7927 39.9332 35.4309 42.1699 30.4384 43.2866C22.6026 45.0398 16.0896 40.9801 15.9461 34.2535C15.908 32.478 16.3333 31.3403 17.5567 29.945C19.1462 28.1316 25.7044 24.947 27.9116 24.9157C30.0971 24.8848 28.8059 23.6678 25.4627 22.6071C22.0874 21.5366 18.0187 18.2661 17.9846 16.597C17.9759 16.1719 18.7193 14.9679 19.6364 13.922C23.0871 9.98664 30.9065 9.48906 34.2414 12.9926C36.7456 15.6234 36.3898 18.1923 33.2568 20.1057C29.443 22.4344 22.4536 18.9181 26.1661 16.5382C26.7125 16.1879 26.8723 15.7522 26.5346 15.5331C26.206 15.3209 25.4337 15.5746 24.8175 16.0978C22.0707 18.4291 27.8081 22.9081 32.2572 21.9057C34.2326 21.4605 36.2865 19.3399 36.8344 17.1804C37.3251 15.2468 35.0211 11.7143 32.5798 10.6581C30.1857 9.62208 24.3965 9.65758 21.7674 10.7253Z" fill="black"/>
<defs>
<linearGradient id="paint0_linear_119_38" x1="0.433167" y1="30.2728" x2="64.867" y2="30.2728" gradientUnits="userSpaceOnUse">
<stop stop-color="#6366F1"/>
<stop offset="1" stop-color="#E7B2FA"/>
</linearGradient>
</defs>
</svg>
